<?xml version="1.0" standalone="no"?>
<!DOCTYPE svg PUBLIC "-//W3C//DTD SVG 20010904//EN"
 "http://www.w3.org/TR/2001/REC-SVG-20010904/DTD/svg10.dtd">
<svg version="1.0" xmlns="http://www.w3.org/2000/svg"
 width="1028.000000pt" height="1028.000000pt" viewBox="0 0 1028.000000 1028.000000"
 preserveAspectRatio="xMidYMid meet">
<metadata>
Created by potrace 1.11, written by Peter Selinger 2001-2013
</metadata>
<g transform="translate(0.000000,1028.000000) scale(0.100000,-0.100000)"
fill="#000000" stroke="none">
<path d="M6630 9759 c-280 -33 -521 -213 -628 -471 -133 -320 -31 -699 243
-905 167 -126 373 -179 580 -151 l41 6 84 -132 c46 -72 125 -194 176 -271 50
-77 129 -198 175 -270 47 -71 154 -237 239 -367 85 -131 159 -247 165 -258 5
-11 13 -20 17 -20 5 0 8 -4 8 -9 0 -5 45 -78 100 -162 55 -84 98 -154 97 -156
-2 -1 -1448 -3 -3213 -3 -1765 -1 -3229 -5 -3254 -9 -25 -5 -63 -12 -85 -15
-69 -9 -196 -46 -287 -82 -326 -130 -611 -392 -770 -708 -68 -134 -120 -298
-144 -446 -4 -25 -8 -823 -9 -1775 -2 -1625 -1 -1736 16 -1835 25 -146 25
-148 60 -247 112 -319 313 -576 594 -759 158 -102 345 -179 510 -208 17 -3 40
-8 53 -10 83 -17 558 -19 3767 -19 3244 0 3687 2 3759 18 11 3 32 7 46 9 168
29 373 112 530 215 79 51 222 172 277 234 177 197 315 467 358 702 27 146 28
238 28 1855 0 921 -3 1709 -7 1750 -52 531 -385 990 -874 1205 -117 52 -253
90 -387 111 -16 2 -88 7 -160 10 -71 3 -135 7 -141 9 -6 2 -77 106 -158 232
-81 125 -202 312 -269 416 -67 103 -178 274 -247 380 -68 105 -176 272 -240
369 -63 98 -168 258 -232 357 l-117 180 45 78 c290 508 -50 1126 -636 1156
-30 1 -80 0 -110 -4z m2188 -3705 c26 -4 49 -8 52 -9 3 -1 25 -5 49 -9 59 -11
195 -66 262 -107 249 -151 410 -397 447 -685 5 -33 8 -818 7 -1745 -1 -1587
-2 -1688 -19 -1759 -30 -123 -69 -215 -133 -311 -142 -214 -337 -347 -597
-406 -65 -15 -396 -16 -3701 -18 -3371 -1 -3637 0 -3725 16 -132 24 -239 66
-350 138 -72 47 -82 55 -152 126 -109 110 -195 260 -240 421 l-23 79 -2 1720
c-1 1098 1 1738 8 1770 5 28 11 59 13 70 9 50 51 156 87 223 94 176 234 311
413 397 126 61 225 85 376 92 69 3 126 6 127 7 8 6 7065 -4 7101 -10z"/>
<path d="M4328 5225 c-2 -2 -39 -6 -83 -9 -148 -12 -282 -25 -330 -32 -16 -2
-48 -6 -70 -8 -192 -23 -451 -88 -935 -238 -237 -73 -489 -137 -635 -163 -16
-3 -41 -7 -55 -9 -108 -20 -152 -26 -201 -31 -31 -3 -66 -8 -79 -10 -21 -4
-104 -10 -265 -20 -33 -2 -96 -5 -140 -6 l-81 -1 2 -267 c1 -146 3 -275 3
-286 1 -18 7 -21 49 -19 185 7 373 16 402 19 19 2 67 6 105 9 39 3 81 8 94 11
13 2 49 7 80 10 44 5 211 37 311 60 110 25 313 82 610 172 311 94 541 154 680
178 136 23 168 28 275 39 93 10 179 15 370 22 105 3 191 7 192 8 0 0 4 131 7
289 l6 288 -154 -2 c-85 0 -156 -2 -158 -4z"/>
<path d="M6785 5110 c-248 -39 -452 -120 -649 -257 -79 -55 -94 -67 -189 -153
-278 -249 -470 -629 -504 -995 -47 -519 107 -957 461 -1311 142 -141 259 -227
426 -310 234 -117 459 -164 750 -159 435 9 803 172 1111 492 219 228 358 483
413 759 8 43 18 93 22 109 3 17 7 107 9 200 3 151 -2 225 -20 330 l-5 30 -785
1 c-559 1 -785 -2 -786 -10 -5 -66 -3 -605 2 -616 6 -13 66 -15 453 -15 514 1
462 16 398 -115 -114 -230 -344 -420 -592 -489 -210 -58 -462 -41 -654 44
-155 68 -349 240 -432 381 -133 226 -171 486 -107 744 79 322 363 605 693 691
122 32 348 32 469 1 146 -38 256 -95 379 -195 l73 -59 226 227 227 227 -31 26
c-141 122 -228 183 -356 252 -153 82 -350 148 -522 175 -96 15 -370 13 -480
-5z"/>
<path d="M4336 4043 c-2 -3 -69 -9 -201 -18 -49 -4 -101 -8 -114 -10 -14 -3
-51 -7 -84 -10 -32 -4 -68 -8 -80 -11 -12 -2 -41 -7 -64 -9 -24 -3 -84 -15
-135 -26 -51 -11 -104 -22 -118 -25 -53 -10 -255 -66 -431 -120 -590 -180
-790 -229 -1059 -259 -30 -3 -71 -8 -90 -10 -41 -5 -130 -12 -255 -20 -101 -7
-223 -23 -236 -30 -4 -3 -8 -126 -9 -274 0 -260 0 -269 19 -274 52 -13 436 8
621 34 41 6 84 12 95 14 11 1 34 5 50 8 17 4 46 9 65 12 134 22 404 91 685
175 451 134 638 183 825 215 52 9 106 18 120 20 14 3 56 7 94 11 38 3 78 8 90
10 21 4 234 13 403 18 51 1 94 4 97 7 2 2 6 132 8 289 l3 285 -148 0 c-82 0
-150 -1 -151 -2z"/>
<path d="M4377 2863 c-1 -1 -47 -4 -102 -8 -55 -4 -116 -8 -135 -10 -19 -2
-75 -6 -125 -10 -49 -4 -99 -9 -110 -11 -11 -2 -49 -9 -85 -15 -212 -34 -426
-88 -835 -210 -55 -17 -107 -32 -115 -34 -8 -3 -91 -27 -185 -55 -93 -27 -179
-52 -190 -54 -11 -2 -31 -7 -45 -10 -14 -3 -38 -8 -55 -11 -16 -3 -77 -14
-135 -24 -58 -11 -132 -23 -165 -26 -33 -4 -68 -9 -79 -11 -10 -2 -51 -6 -90
-9 -39 -3 -88 -8 -108 -10 -21 -2 -102 -7 -180 -11 -79 -3 -151 -10 -160 -15
-20 -11 -21 -20 -20 -309 0 -248 1 -272 10 -266 4 2 68 7 142 11 159 7 272 15
425 30 109 11 272 37 380 61 39 9 81 18 95 20 14 3 93 23 175 46 83 22 164 44
180 48 17 5 100 29 185 55 511 153 594 173 845 210 213 30 247 33 425 41 80 4
174 8 210 9 36 2 70 3 76 4 24 2 28 42 30 309 l2 274 -130 -4 c-71 -2 -130 -4
-131 -5z"/>
</g>
</svg>
